PathFileType	4	(X/Y/Z)	pose_F01_0-96.trc
DataRate	CameraRate	NumFrames	NumMarkers	Units	OrigDataRate	OrigDataStartFrame	OrigNumFrames
30	30	9	21	m	30	24	96
Frame#	Time	CHip			RHip			RKnee			RAnkle			RBigToe			RSmallToe			RHeel			LHip			LKnee			LAnkle			LBigToe			LSmallToe			LHeel			Neck			Nose			RShoulder			RElbow			RWrist			LShoulder			LElbow			LWrist			
		X1	Y1	Z1	X2	Y2	Z2	X3	Y3	Z3	X4	Y4	Z4	X5	Y5	Z5	X6	Y6	Z6	X7	Y7	Z7	X8	Y8	Z8	X9	Y9	Z9	X10	Y10	Z10	X11	Y11	Z11	X12	Y12	Z12	X13	Y13	Z13	X14	Y14	Z14	X15	Y15	Z15	X16	Y16	Z16	X17	Y17	Z17	X18	Y18	Z18	X19	Y19	Z19	X20	Y20	Z20	X21	Y21	Z21	
24	0.8	-0.17188483190988674	1.8835930672639678	-0.6261921266285061	-0.18517605461709055	1.8803147587887474	-0.5646243116426936	-0.17585901334700152	1.7385260247659948	-0.5658115474964803	-0.17426864677562456	1.5990575948612717	-0.554567105461201	-0.20401068411139542	1.5597624549233964	-0.5273665875182341	-0.2017345707710385	1.566847153143987	-0.5038515003342866	-0.16830488986473274	1.5883977836713	-0.5680596591408916	-0.15893455582972832	1.885349292326317	-0.6935600398619262	-0.15598218203641748	1.7416091682700985	-0.6766425515764437	-0.15903216369397474	1.5951939315389752	-0.6475140794160197	-0.18415266948165457	1.5519908237618014	-0.6417764814037363	-0.1737397931925645	1.5592958211740313	-0.6741852765268597	-0.1536275671375784	1.5851472132856692	-0.6350220148211115	-0.16551312822943137	2.0496846551239862	-0.6440234139472832	-0.18807780918527214	2.115473435173491	-0.6315665735732028	-0.1831654469651187	2.045526942149164	-0.5512003562755797	-0.18280002250696692	1.9588348628255514	-0.5185139684045244	-0.1986921206551631	1.882253012570255	-0.4895729482143437	-0.14107824510594272	2.0553789614768556	-0.7412437454126601	-0.13868237280809353	1.9674968881370656	-0.7555454072735114	-0.1473975452401347	1.889101475777858	-0.7585854160557571
25	0.8333333333333334	-0.1717525154922379	1.8847670466968252	-0.6262591104474826	-0.18508259113883427	1.8815070720598095	-0.5646995217974206	-0.17615705405028184	1.738642983296934	-0.5654986999333439	-0.17460693636438215	1.6017313108175444	-0.5540932355694799	-0.20420475079221115	1.5612969698102304	-0.5271015643390007	-0.20095309300671574	1.568335662653535	-0.5003453737985533	-0.16852677480332792	1.589857464849347	-0.5677675956352894	-0.15875957426638335	1.8864669548654331	-0.6936238870661569	-0.15611435359169695	1.7403265066358118	-0.6762752921339685	-0.1593733142224741	1.593947636090593	-0.6468984082256096	-0.18495434376090164	1.5505376783452447	-0.6451024316151397	-0.1741029531027538	1.557892071628981	-0.6735766872324868	-0.15395974263528842	1.5841496654067941	-0.6344131074826944	-0.16556085975262483	2.0497075488404866	-0.6440239174135434	-0.1892366698887169	2.115305524195036	-0.6266110246287732	-0.18510531468223226	2.0454341652261734	-0.5490312210808488	-0.1827124523176589	1.9575535651643865	-0.5180990698121435	-0.19764266533231278	1.8832243370950987	-0.48657019183926475	-0.1432445645619738	2.0554210558902195	-0.7390930009881019	-0.1386911301529574	1.9674468989831644	-0.7555461073342803	-0.14681444168878294	1.885191699964452	-0.7550468664425123
26	0.8666666666666667	-0.1721670704991049	1.8838757936408228	-0.6262901611036394	-0.18546685445682554	1.880663573402589	-0.5647584294435352	-0.175871139422482	1.7384483059179363	-0.5658286175977298	-0.17431663666714511	1.5990404296670988	-0.554526453209766	-0.20607027177241785	1.5597613243922817	-0.5251742579221679	-0.2008369359273267	1.5669900693574295	-0.5006151408224015	-0.17038145519551826	1.5882430745272518	-0.5658514839940748	-0.1592129318477331	1.885791479816407	-0.6935788639555238	-0.15616258209797268	1.7403309177847972	-0.6763217452488421	-0.15928401484959495	1.5938591671741746	-0.6470461615727802	-0.18400801077113033	1.5506661297635618	-0.6419867176948992	-0.1738445974929611	1.5565334710341967	-0.6737458757611585	-0.15180100399879445	1.5840800441499854	-0.6367675824433452	-0.16552260655204382	2.0497574275891624	-0.6439948666571578	-0.19005179156692592	2.115429822158259	-0.6294725436519516	-0.18316537051178394	2.045563914518078	-0.5511377765464167	-0.1827774907040802	1.9575927720335975	-0.5180077264984253	-0.19781796487322037	1.8820585541894386	-0.48641000097523107	-0.14311223625240313	2.056477878109882	-0.738904550825966	-0.1385929078457339	1.969881306055091	-0.7558038512919341	-0.1490881134746664	1.8892407045469493	-0.7531398509438962
27	0.9	-0.1742148290792936	1.883782933253555	-0.6240109722890096	-0.1854943157793738	1.8806659795595662	-0.5646546226942659	-0.17611778303727518	1.7440071350145931	-0.5661669847308298	-0.17367628598311644	1.6018095585333134	-0.5509697834692008	-0.20430790244995176	1.5615114982651133	-0.527088406820555	-0.20081807245709205	1.5672777805498865	-0.5006373847186346	-0.16846330244630006	1.5898119987955914	-0.5678117373771758	-0.16122597507319014	1.8867793394682408	-0.6913854306468944	-0.1561655869091015	1.7404148802671437	-0.6762475959777914	-0.15933959716157126	1.5939535952902208	-0.6469893212151018	-0.18404804278697354	1.5507596465368179	-0.6419352875643074	-0.17408403021584243	1.5580894335229207	-0.673535668848584	-0.15207275996979233	1.58576888121114	-0.6365171892800773	-0.16548785113528636	2.0521778002209348	-0.6443993744742118	-0.1892438094720572	2.1153286382497805	-0.6266011211734582	-0.18310849603011342	2.046737464060901	-0.5511975352106848	-0.1837216201756043	1.960559073794685	-0.5220881912177764	-0.19810360389832007	1.8839354454936765	-0.48682451692978485	-0.14313397925228957	2.0565542090442155	-0.7388833074942094	-0.13848268057557078	1.968728144400124	-0.7556091653345005	-0.1466303557277845	1.889045637803198	-0.755405039415608
28	0.9333333333333333	-0.17415206267226835	1.886401973388596	-0.6244632004772553	-0.18744286972478325	1.8831890871674917	-0.5629474748925515	-0.1763154376484114	1.740174863131896	-0.5655729640684899	-0.17464023612130902	1.5990309824885733	-0.5538432850614635	-0.20394998677524273	1.559830550346952	-0.5273283163025642	-0.20068904373156718	1.5667156483671545	-0.5006068502735741	-0.16831456726640293	1.5884522980631652	-0.5680452472016849	-0.16111277680498923	1.889406992562954	-0.6917770519454223	-0.1562861016481182	1.741716995614957	-0.6762144855149119	-0.1593430521096586	1.5939221640456163	-0.6469456812306469	-0.18405280827642803	1.5509455467369655	-0.642061120824495	-0.17408625145414416	1.5582305950081867	-0.6736375355515524	-0.15214158985012705	1.5830524047061865	-0.6361234323603753	-0.16552842978710894	2.050898806424479	-0.6439347527527147	-0.18924858543707598	2.115289936575199	-0.626600543858726	-0.18605061084725236	2.0456496954201975	-0.5521148135158421	-0.18582763693102483	1.961755141551632	-0.5203956448814513	-0.19819391955429233	1.8879004257432586	-0.48758009781046197	-0.14316401900086248	2.0565383729149156	-0.7388907130763105	-0.138507059470642	1.9687968518108987	-0.7556089765849636	-0.1466345848173017	1.888972994619535	-0.755460278252145
29	0.9666666666666667	-0.17195114543346354	1.8810886424930298	-0.6258574168475725	-0.1853315563430144	1.879183061370641	-0.5645168248944742	-0.1757731557973845	1.7385245813293868	-0.565889072155355	-0.17468395648153132	1.5990488521099595	-0.5537970541068619	-0.2060666753820863	1.559575276068952	-0.5251303528221867	-0.2007828182842497	1.5667841045984319	-0.5006159373039026	-0.1703822443274047	1.5882481918744944	-0.5658706273260604	-0.1590950202114795	1.8842578606018296	-0.6934054799492818	-0.1560163372459133	1.738978970493834	-0.6762301804040397	-0.1593909669570831	1.5938830904121915	-0.6470194720667234	-0.18493258843587237	1.5506124259217393	-0.6452488140716428	-0.17449580288076197	1.5580012510676007	-0.677467831962091	-0.1542838902642071	1.5829269383159688	-0.6339492464672882	-0.16548569637707422	2.0509385232444943	-0.643919125103845	-0.1892544298805028	2.1152885477835577	-0.6265570066717886	-0.183134941187874	2.0466876364090627	-0.5511645869752584	-0.1825058188589254	1.9598738416526094	-0.5182785025139776	-0.1985687050433165	1.883245675312117	-0.489716874165033	-0.14315728560901675	2.056598730627658	-0.7389008529054788	-0.13843606423362156	1.9712891684739025	-0.7559333426487985	-0.14674380145458457	1.8904683265451956	-0.7555458298431851
30	1.0	-0.17200877132040499	1.885072925336353	-0.6264162186711173	-0.18533672747172883	1.881802648144032	-0.5648653056683078	-0.17615178228799275	1.741426657794509	-0.5658804417360255	-0.17387857710077734	1.6030804909472298	-0.5507301027789816	-0.20428959454791829	1.5616627441165312	-0.5271399204212265	-0.20200373794876392	1.5686800937502117	-0.5036496173309963	-0.16775361642556239	1.590874013952192	-0.5643298237114863	-0.15902154703601049	1.8869146482469537	-0.6937472087390129	-0.15811148761724397	1.7415071838541938	-0.6743953931726915	-0.16025192931560941	1.5938867506806635	-0.6501899645279838	-0.1841340233658481	1.551829349522359	-0.6417782990074781	-0.17398618009242264	1.5577743667546178	-0.6736150368924964	-0.15395707599760922	1.583811809223982	-0.6345794466923801	-0.1655217856690584	2.052187050987936	-0.6443205672946657	-0.18930467921759406	2.1152979089894735	-0.6265219701598532	-0.18515416858992842	2.045544154238366	-0.5491007902062661	-0.18479647402112484	1.9589708670688486	-0.5163050221375028	-0.19771129923911843	1.8832240319170062	-0.4864786209539085	-0.14315072543377125	2.056563806618686	-0.7388390011957311	-0.13845267226523764	1.9711188642377833	-0.7558597901806156	-0.14663018998884467	1.8915892002839483	-0.7557132833163545
31	1.0333333333333334	-0.17428371630772949	1.8838451423809708	-0.624011395290075	-0.18746133784711855	1.8831175493706747	-0.5629083697796042	-0.17602712409174542	1.7399344269916752	-0.565828377448615	-0.17417983287004918	1.6017221742258045	-0.5548598401490964	-0.20428128295961265	1.5612179194434361	-0.5271079877275768	-0.20077611637294057	1.566806399903208	-0.5006254090574618	-0.170089503212296	1.589632285568631	-0.5663325217572454	-0.1633963548717365	1.886745963930723	-0.6891034921023619	-0.1574709912926894	1.740178115918077	-0.6708183430017661	-0.15852327110793277	1.593981561027339	-0.6436978646442248	-0.1850720764516382	1.5509296825833412	-0.6450813182828897	-0.17615613349124995	1.5569669854780648	-0.6715484903361074	-0.15337524453439932	1.58282403684993	-0.6307290944177659	-0.165526592508662	2.052152808860422	-0.6443416204086765	-0.19012850970492814	2.1154280129181116	-0.6293934157153912	-0.18507852123950141	2.046660948716587	-0.5489510455455001	-0.18288207229492706	1.9590469648313338	-0.5184815471644054	-0.19892711239242222	1.8851107440937356	-0.4900771071086045	-0.1431327325732857	2.0564881575243907	-0.738992802346121	-0.13873703826536551	1.9688219019425572	-0.7557788377127397	-0.14620456231685924	1.890496737702519	-0.7526581200801481
32	1.0666666666666667	-0.17511287980234175	1.8838849154442576	-0.6271371351692252	-0.18763329409551907	1.8819828734620578	-0.5628040054489631	-0.1776750120469316	1.7404366804349647	-0.5684937017868201	-0.17347870819020803	1.6004279821498986	-0.5511450120075763	-0.20636543293124698	1.561456639740005	-0.5250433166649561	-0.20207024457332623	1.5686515820634355	-0.5036981877849895	-0.16734904067140313	1.5883849506190992	-0.5647577314054991	-0.1614999160295688	1.8871633255559828	-0.6915147920326135	-0.1585000124432238	1.7389304360312943	-0.6737065294229562	-0.15852956399307014	1.5940937035622746	-0.6437674115867685	-0.18425284146622165	1.5522148319291653	-0.6417870273408423	-0.1741590118983117	1.5583095059627916	-0.6735097524512261	-0.154204839911596	1.5827236246380634	-0.6338262181739396	-0.1656506626072507	2.0510897661107093	-0.6444797195941333	-0.19012863500513932	2.115428189393323	-0.6294373948529192	-0.18526426961244702	2.046854337057986	-0.5495736144628568	-0.18502241334243472	1.9591112464472806	-0.5166420076531905	-0.19819847145179673	1.8839273973531108	-0.48668813043982967	-0.14313902715190405	2.0565678389504427	-0.7389729090777752	-0.13865073926471833	1.9673707295268055	-0.7555013220262057	-0.14926643529941278	1.887906875383368	-0.7531502627118251
